HIERARCHY
ROOT Hips
{
	OFFSET -0.179506 -22.333345 2.821913
	CHANNELS 6 Xposition Yposition Zposition Zrotation Yrotation Xrotation 
	JOINT LeftUpLeg
	{
		OFFSET 6.951974 -9.140623 -0.681533
		CHANNELS 3 Zrotation Yrotation Xrotation
		JOINT LeftLeg
		{
			OFFSET 3.427654 -37.519855 -0.449580
			CHANNELS 3 Zrotation Yrotation Xrotation
			JOINT LeftFoot
			{
				OFFSET -1.359570 -39.796059 -4.369333
				CHANNELS 3 Zrotation Yrotation Xrotation
				JOINT LeftToe
				{
					OFFSET 2.635814 -5.579078 11.928840
					CHANNELS 3 Zrotation Yrotation Xrotation
					End Site
					{
						OFFSET 0.000000 0.000000 0.000000
					}
				}
			}
		}
	}
	JOINT RightUpLeg
	{
		OFFSET -6.767048 -9.052170 -0.431982
		CHANNELS 3 Zrotation Yrotation Xrotation
		JOINT RightLeg
		{
			OFFSET -3.829005 -38.256897 -0.885003
			CHANNELS 3 Zrotation Yrotation Xrotation
			JOINT RightFoot
			{
				OFFSET 1.577377 -39.841461 -4.231180
				CHANNELS 3 Zrotation Yrotation Xrotation
				JOINT RightToe
				{
					OFFSET -2.537174 -4.814398 12.334795
					CHANNELS 3 Zrotation Yrotation Xrotation
					End Site
					{
						OFFSET 0.000000 0.000000 0.000000
					}
				}
			}
		}
	}
	JOINT Spine
	{
		OFFSET -0.253288 10.896323 -2.669631
		CHANNELS 3 Zrotation Yrotation Xrotation
		JOINT Spine1
		{
			OFFSET 0.548704 13.518043 0.109247
			CHANNELS 3 Zrotation Yrotation Xrotation
			JOINT Spine2
			{
				OFFSET 0.145701 5.292222 2.542457
				CHANNELS 3 Zrotation Yrotation Xrotation
				JOINT Neck
				{
					OFFSET -0.277840 21.387037 -4.285703
					CHANNELS 3 Zrotation Yrotation Xrotation
					JOINT Head
					{
						OFFSET 0.515184 6.496960 5.134897
						CHANNELS 3 Zrotation Yrotation Xrotation
						End Site
						{
							OFFSET 0.000000 0.000000 0.000000
						}
					}
				}
				JOINT LeftShoulder
				{
					OFFSET 7.884473 12.174932 -3.408961
					CHANNELS 3 Zrotation Yrotation Xrotation
					JOINT LeftArm
					{
						OFFSET 9.097692 3.046888 -0.886815
						CHANNELS 3 Zrotation Yrotation Xrotation
						JOINT LeftForeArm
						{
							OFFSET 25.961220 -1.277207 -2.745643
							CHANNELS 3 Zrotation Yrotation Xrotation
							JOINT LeftHand
							{
								OFFSET 24.923361 0.898606 -0.117091
								CHANNELS 3 Zrotation Yrotation Xrotation
								End Site
								{
									OFFSET 0.000000 0.000000 0.000000
								}
							}
						}
					}
				}
				JOINT RightShoulder
				{
					OFFSET -8.175920 11.883285 -3.861528
					CHANNELS 3 Zrotation Yrotation Xrotation
					JOINT RightArm
					{
						OFFSET -9.601238 3.255117 -0.914307
						CHANNELS 3 Zrotation Yrotation Xrotation
						JOINT RightForeArm
						{
							OFFSET -25.374195 -1.332924 -2.140099
							CHANNELS 3 Zrotation Yrotation Xrotation
							JOINT RightHand
							{
								OFFSET -25.529810 0.777228 -0.555919
								CHANNELS 3 Zrotation Yrotation Xrotation
								End Site
								{
									OFFSET 0.000000 0.000000 0.000000
								}
							}
						}
					}
				}
			}
		}
	}
}
MOTION
Frames: 16
Frame Time: 0.033333
275.382111 -235.959366 88.027199 -136.959473 -4.054854 91.210063 -2.298584 -5.210835 -34.356243 -10.576842 3.486358 40.499592 11.165136 6.585548 -14.320077 nan nan nan 1.264325 -4.379064 4.375687 -0.724917 -2.582707 72.303731 4.133454 -6.971109 -9.299990 nan nan nan -4.651148 8.647777 16.276729 0.883154 0.459421 -2.583993 -0.295206 1.686870 -0.505878 6.162982 -9.132663 -8.606030 6.482804 -9.242139 -7.744101 -23.730154 1.092885 2.529826 -40.198438 4.933193 12.310441 -147.212724 -79.424613 -171.933081 19.466233 -15.503408 20.016000 19.140757 4.987608 -0.867000 48.724732 -2.420482 14.167015 6.687089 79.149013 32.437873 -6.317315 10.621726 -4.013229 
273.451141 -233.953522 87.668266 -135.785888 -4.497773 91.247232 -2.655125 -6.096239 -34.093265 -10.388703 4.818042 43.677370 11.441455 5.771646 -16.965449 nan nan nan 0.347086 -4.048225 0.641089 -2.100508 -4.072969 76.561058 3.919950 -7.038424 -11.369178 nan nan nan -4.802820 7.518667 15.936136 0.969118 -0.488137 -1.998846 -0.559392 0.763734 -0.699376 6.616651 -8.255209 -8.590527 6.555586 -8.347546 -7.204125 -24.960838 0.327504 2.532967 -41.134430 2.638337 12.150845 -156.126021 -80.040441 -162.508529 17.192341 -15.555878 19.652521 20.246867 4.167772 -0.513530 48.193383 -3.547093 13.921562 4.898003 77.183413 32.759667 -2.507317 10.861342 -2.353409 
271.595154 -232.000427 87.421410 -134.969799 -5.645077 91.086728 -3.586038 -7.680701 -32.638606 -9.176230 6.748226 44.919234 10.677399 4.069589 -18.603274 nan nan nan -1.620743 -2.433812 -3.353932 -3.530708 -5.914880 80.544025 3.827876 -7.413896 -10.603167 nan nan nan -5.953801 6.802713 16.085903 0.422079 -1.432257 -1.095010 0.316758 0.110732 -1.954999 5.503450 -10.130297 -6.178503 8.129538 -5.126617 -7.808667 -25.706228 -3.303623 4.326340 -43.994579 2.023315 11.260491 176.904525 -79.987042 -134.669772 8.145870 -16.663529 24.821692 19.413434 5.416290 -0.111799 48.375450 -8.003142 10.418065 12.463426 75.440649 42.115062 13.121016 10.088169 -1.728810 
269.815491 -229.946182 87.223488 -134.103083 -6.721918 90.408214 -4.640644 -8.953457 -29.787750 -10.488495 6.362929 44.459516 10.863129 5.660072 -19.720619 nan nan nan -3.372409 -1.555378 -6.669214 -3.904005 -6.647818 83.882019 3.820615 -8.371650 -11.651946 nan nan nan -6.761880 6.016045 17.129661 0.359868 -2.137663 -0.833613 0.360736 -0.839966 -2.087388 5.664575 -9.470968 -6.307902 8.482791 -4.244135 -8.044258 -26.401689 -4.666112 3.758473 -44.417816 -0.529680 12.063811 167.025320 -79.393162 -125.300526 11.755814 -16.843055 23.909330 20.328044 5.036531 -0.417733 47.790296 -8.834472 10.921222 7.203676 73.217048 36.332805 12.917482 7.928124 0.229380 
267.976837 -227.667603 87.022209 -132.712069 -7.551814 88.395100 -6.524956 -9.308025 -24.828948 -11.393011 4.389288 43.570650 10.878908 7.021034 -21.128527 nan nan nan -4.836593 0.171122 -8.323108 -4.662266 -8.357741 86.588527 4.533562 -7.631179 -13.470424 nan nan nan -7.309823 4.664463 20.269892 0.042147 -2.766642 -1.979235 0.508127 -1.570483 -1.729248 5.929607 -8.897755 -6.118378 8.957687 -3.389396 -8.457955 -26.000638 -6.379364 3.381198 -45.297671 -2.722475 12.143006 160.921404 -78.570018 -118.067676 11.372497 -16.973453 24.077906 19.885487 4.209927 -1.111400 49.338199 -11.300112 9.659443 3.052426 72.324349 35.372999 15.374357 7.059210 4.470820 
266.162689 -225.509155 86.944839 -132.427017 -7.874317 86.971095 -8.084534 -8.461092 -20.371007 -11.543311 2.093103 42.782936 10.498343 8.069377 -22.716220 nan nan nan -5.658420 0.624079 -11.032834 -4.709858 -7.661962 88.482567 4.566160 -7.186800 -14.032395 nan nan nan -7.174193 3.683724 22.661850 -0.434614 -2.968310 -2.566696 0.715698 -2.400462 -1.948661 5.434956 -8.584736 -5.504903 9.509144 -2.292735 -8.913700 -25.312996 -8.102319 3.250716 -46.036759 -4.744409 12.037293 158.624847 -77.945198 -115.334499 12.935474 -16.288646 23.745419 18.767774 3.879599 -1.133959 51.487693 -13.616252 8.801246 0.427099 71.147239 30.475385 13.937493 6.804192 1.016895 
263.940857 -223.464767 87.003540 -130.931098 -7.648264 85.479387 -9.356925 -8.928680 -15.843327 -11.455325 -0.155659 42.337378 10.584222 9.377293 -24.634615 nan nan nan -6.744005 0.097690 -12.809910 -4.065610 -7.655376 89.514080 4.763161 -6.936461 -15.253478 nan nan nan -5.860180 1.825428 23.675972 -0.663387 -3.767137 -1.762964 0.498762 -3.164767 -2.448547 4.341403 -8.844877 -3.722696 9.705593 -0.726437 -10.230165 -24.969178 -9.728165 3.382658 -46.400389 -6.737819 11.878232 155.467904 -77.077526 -112.118546 13.165045 -15.447648 23.401256 17.696283 3.577889 -0.961412 51.621891 -15.704132 8.104084 -0.209081 69.995409 29.226288 17.888459 5.497882 1.098491 
262.219238 -221.319046 87.012444 -131.695852 -7.135240 84.645940 -9.162850 -7.358680 -12.137130 -11.493286 -1.436408 41.760744 10.466741 9.892214 -26.577272 nan nan nan -6.478195 1.286292 -16.244870 -4.007914 -6.848919 90.547949 4.889257 -6.655703 -15.452547 nan nan nan -5.331586 0.869707 25.336220 -0.775742 -3.551553 -2.729781 0.711580 -3.519090 -2.313253 3.708965 -8.050015 -3.198897 9.544349 0.119736 -10.157169 -23.759913 -10.950332 3.144148 -46.974906 -8.991873 10.462060 155.297963 -76.797627 -110.664130 10.256170 -15.895328 23.692971 16.447028 2.978858 -1.002854 51.483614 -17.447134 5.974345 2.167495 70.164726 35.531702 22.961855 6.727222 2.560709 
260.541870 -219.199890 86.950409 -132.841197 -6.702017 84.441209 -8.795121 -5.816646 -9.100895 -11.797339 -2.753296 40.929686 9.978057 10.483176 -28.107693 nan nan nan -6.299495 3.163846 -20.489303 -4.426234 -6.345987 91.588416 5.411336 -5.771467 -16.255219 nan nan nan -5.056636 -0.292821 26.296763 -0.871038 -3.109924 -3.925732 0.799000 -3.736130 -1.752253 3.664988 -6.099509 -3.512976 8.958979 0.253132 -9.473491 -22.392696 -11.790872 2.729474 -47.165574 -11.318666 9.376806 155.272881 -76.375270 -108.702539 4.059523 -16.104642 22.960355 15.211762 2.111885 -1.214165 50.040160 -18.310855 4.465010 9.906166 70.495815 49.328708 29.071983 9.122360 -0.007354 
258.585205 -216.994492 87.035866 -133.341308 -5.958971 83.499922 -8.508439 -3.625743 -4.815407 -11.802201 -5.334253 39.514236 9.787254 11.282447 -29.271329 nan nan nan -5.842551 4.070886 -23.240399 -4.323759 -5.657926 91.352142 5.979271 -5.094536 -17.177897 nan nan nan -3.991143 -2.043234 27.421818 -1.156883 -2.937950 -4.498597 0.653823 -3.954222 -1.442420 2.707414 -5.321410 -2.943009 9.004588 1.540749 -9.485265 -21.654297 -12.884466 1.857540 -46.156455 -12.375085 9.086803 155.603941 -75.977427 -110.644117 6.288552 -15.119423 25.674092 13.949440 1.644386 -1.212734 53.527670 -21.036560 4.090177 -0.390175 71.057307 32.613387 23.170026 7.448275 -0.728644 
256.424866 -214.834457 87.121155 -132.989975 -5.185651 83.369822 -8.254514 -2.942406 -1.250129 -11.908579 -7.959248 37.815737 9.440950 12.673250 -30.166475 nan nan nan -6.204779 4.874753 -26.528787 -3.693744 -6.042648 90.434973 6.662244 -4.524895 -18.039688 nan nan nan -2.733854 -3.943018 26.782807 -0.963150 -3.197652 -4.479008 0.426627 -4.431214 -1.140373 1.721074 -4.488752 -2.065872 8.316156 2.519986 -9.335685 -21.221935 -13.566104 1.624539 -44.922056 -13.654482 8.652861 154.499065 -75.401652 -110.336917 6.517640 -14.944231 26.993356 13.092434 0.752588 -0.898850 53.218720 -22.624495 3.718288 -1.316734 71.433156 29.221173 20.900669 7.457880 -1.638374 
254.210388 -212.560760 87.331551 -132.656205 -4.107645 83.178048 -7.440485 -2.208577 2.791162 -11.792605 -10.743958 35.444670 8.719905 13.966941 -30.745966 nan nan nan -6.333874 6.032796 -29.106263 -3.119687 -6.765184 88.405618 7.364975 -4.497855 -18.300530 nan nan nan -1.510999 -5.875626 25.862630 -0.469483 -3.486762 -3.890720 0.308044 -4.803540 -1.127650 0.665686 -3.585418 -1.127162 7.513370 3.719182 -9.183556 -20.794001 -14.137406 1.587016 -43.432468 -14.219870 8.418522 152.193799 -74.223007 -109.133025 9.938338 -16.134066 27.536904 12.541117 0.103020 -0.790531 52.196563 -24.246867 3.359364 -2.276118 71.816366 25.700700 19.143967 7.946812 -1.447996 
252.252167 -210.546631 87.494408 -133.657123 -3.897983 83.981931 -7.555638 -1.698071 5.529456 -11.149277 -11.867146 32.805533 8.105663 14.978903 -30.734502 nan nan nan -7.075558 7.281131 -33.545384 -2.670485 -6.378179 86.410048 7.744619 -5.097474 -16.988669 nan nan nan -1.023973 -7.407102 25.289775 -0.350108 -3.311016 -5.450982 0.094832 -5.021306 -0.024455 -0.032708 -1.940064 -1.398548 6.740812 4.543188 -8.013764 -19.508901 -13.730270 1.205047 -42.339964 -15.097355 7.921527 151.887979 -73.408015 -108.910730 8.132846 -17.157072 26.014843 11.620428 -0.657299 -0.600652 51.323409 -24.797644 3.570223 -3.484005 72.067766 24.916290 20.650046 8.401438 -3.234218 
250.182007 -208.477829 87.737457 -134.411743 -3.974036 85.038898 -8.199031 -1.565008 7.995474 -9.970016 -12.518607 30.124141 7.838062 15.552975 -29.850273 nan nan nan -7.616894 7.107626 -37.553928 -2.430959 -4.984772 82.858076 5.913098 -6.944047 -12.266801 nan nan nan -0.827599 -8.612029 23.512556 -0.077570 -3.376659 -5.550572 0.218935 -5.364063 0.662746 -1.435763 -1.229984 -1.424198 6.396608 6.146634 -7.519168 -18.264079 -13.128716 0.826245 -41.385652 -15.703358 7.493023 152.033494 -72.525836 -109.705253 6.756968 -16.888031 26.519689 10.658375 -1.677756 -0.420596 49.932178 -24.819042 3.934237 -3.564453 72.265987 24.096426 22.307658 7.715040 -4.215821 
248.238022 -206.440689 88.095337 -135.701125 -3.799084 86.718456 -8.499142 -1.278486 9.344865 -8.783048 -12.528720 27.887496 7.506713 15.940127 -28.538548 nan nan nan -7.361433 5.986659 -41.742577 -0.889472 -2.703414 78.716170 5.286506 -8.346684 -10.518191 nan nan nan -0.276804 -8.960079 20.914951 0.394664 -3.576971 -4.944293 0.450188 -5.835904 0.821951 -2.467356 -0.523553 -1.231865 5.557852 7.613465 -7.037167 -17.209493 -12.529975 0.681543 -40.284039 -15.995127 6.954428 152.317323 -71.582337 -110.363983 7.001778 -16.190382 27.022289 10.143180 -2.308143 0.026521 48.057064 -24.696279 3.908722 -3.805803 72.213548 22.574826 22.780321 7.073378 -5.107897 
246.237793 -204.331955 88.521896 -136.793493 -3.517550 87.956337 -8.660798 -1.118180 10.998538 -7.778627 -12.514704 25.827894 6.536905 16.227522 -27.031596 nan nan nan -7.231943 6.095424 -44.370955 -0.234130 -1.146448 73.472918 4.927868 -9.631944 -8.765287 nan nan nan 0.230121 -9.639006 18.920807 0.928693 -3.793701 -4.470967 0.681538 -6.061009 0.924013 -3.226838 0.331973 -0.801406 4.473515 8.972844 -6.613154 -15.900155 -11.843378 0.738616 -39.745811 -16.172317 6.757458 151.475294 -70.467501 -110.059659 7.062745 -16.242292 27.179674 9.510457 -2.902345 0.443297 46.508751 -24.633208 4.324222 -5.633923 71.572163 18.497779 21.240842 7.582066 -6.103358 
